# xmcd CD database file
#
# Track frame offsets:
#	150
#	11002
#	22875
#	33069
#	44921
#	57191
#	69225
#	79747
#	92641
#	103471
#	115672
#	127759
#	137925
#	150852
#	162047
#	178494
#	190715
#	202171
#	213617
#	227312
#
# Disc length: 3160 seconds
#
# Revision: 0
# Processed by: cddbd v1.5.2PL0 Copyright (c) Steve Scherf et al.
# Submitted via: CDex 1.51
#
DISCID=070c5614
DTITLE=Billy Walker - Columbia Hits
DYEAR=2005
DGENRE=Country
TTITLE0=The Storm Within My Heart
TTITLE1=On My Mind Again
TTITLE2=Charlie's Shoes
TTITLE3=Forever
TTITLE4=Thank You For Calling
TTITLE5=Heart, Be Careful
TTITLE6=I Wish You Love
TTITLE7=Funny How Time Slips Away
TTITLE8=Willie The Weeper
TTITLE9=The Morning Paper
TTITLE10=Circumstances
TTITLE11=It's Lonesome
TTITLE12=Cross The Brazos At Waco
TTITLE13=Down To My Last Cigarette
TTITLE14=Matamoros
TTITLE15=If It Pleases You
TTITLE16=I'm So Miserable Without You
TTITLE17=Come A Little Bit Closer
TTITLE18=The Lawman
TTITLE19=Nobody But A Fool
EXTD=YEAR: 2005
EXTT0=
EXTT1=
EXTT2=
EXTT3=
EXTT4=
EXTT5=
EXTT6=
EXTT7=
EXTT8=
EXTT9=
EXTT10=
EXTT11=
EXTT12=
EXTT13=
EXTT14=
EXTT15=
EXTT16=
EXTT17=
EXTT18=
EXTT19=
PLAYORDER=
